# xmcd
#
# Track frame offsets:
# 150
# 11478
# 27973
# 39388
# 51403
# 65055
# 76220
# 88235
# 101280
# 120262
# 130087
# 141210
# 153300
# 166722
# 176910
# 191120
# 203022
# 213377
# 223592
# 235505
#
# Disc length: 3318 seconds
#
#
# Revision: 0
# Processed by: cddbd v1.5.2PL0 Copyright (c) Steve Scherf et al.
# Submitted via: FreeRIP 2.96 
#
DISCID=0d0cf414
DTITLE=Fausto Papetti - 20 Exitos
DYEAR=1900
DGENRE=
TTITLE0=La sombra de tu sonrisa
TTITLE1=Pequeña flor
TTITLE2=Humo en tus ojos
TTITLE3=Georgia de mi pensamiento
TTITLE4=Una pálida sombra
TTITLE5=Summer time
TTITLE6=Harlem nocturno
TTITLE7=Saint Louis blues
TTITLE8=My way
TTITLE9=Laura
TTITLE10=Blue moon
TTITLE11=Extraños en la noche
TTITLE12=Arrivederci Roma
TTITLE13=Brasil
TTITLE14=Un hombre y una mujer
TTITLE15=El sonido de la música
TTITLE16=Danny boy
TTITLE17=Oldman river
TTITLE18=Born free
TTITLE19=Historia de amor
EXTD=
EXTT0=
EXTT1=
EXTT2=
EXTT3=
EXTT4=
EXTT5=
EXTT6=
EXTT7=
EXTT8=
EXTT9=
EXTT10=
EXTT11=
EXTT12=
EXTT13=
EXTT14=
EXTT15=
EXTT16=
EXTT17=
EXTT18=
EXTT19=
PLAYORDER=
